<!DOCTYPE svg PUBLIC "-//W3C//DTD SVG 1.1//EN" "http://www.w3.org/Graphics/SVG/1.1/DTD/svg11.dtd">
<!-- Uploaded to: SVG Repo, www.svgrepo.com, Transformed by: SVG Repo Mixer Tools -->
<svg fill="#3c5a5d" width="800px" height="800px" viewBox="0 0 24 24" xmlns="http://www.w3.org/2000/svg" stroke="#3c5a5d" stroke-width="0.9600000000000002">
<g id="SVGRepo_bgCarrier" stroke-width="0"/>
<g id="SVGRepo_tracerCarrier" stroke-linecap="round" stroke-linejoin="round"/>
<g id="SVGRepo_iconCarrier">
<path d="M2,21a1,1,0,0,0,1,1H21a1,1,0,0,0,1-1V18H2Z"/>
<path d="M11,2H3A1,1,0,0,0,2,3V16h9ZM9,10a1,1,0,0,1-2,0V8A1,1,0,0,1,9,8Z"/>
<path d="M21,2H13V16h9V3A1,1,0,0,0,21,2Zm-4,8a1,1,0,0,1-2,0V8a1,1,0,0,1,2,0Z"/>
</g>
</svg>